<svg xmlns="http://www.w3.org/2000/svg" viewBox="0 0 95.65 47.1">
<defs><style>.cls-1{fill:#73787b;}.cls-2{fill:#54b0d6;}</style>

</defs><g id="Layer_2" data-name="Layer 2">
<g id="body">
<path class="cls-1" d="M43.4,36.26c.24,3.63,2.77,4.77,5.93,4.77s5.82-1.43,5.82-4.34c0-2.3-1.48-4.06-5.73-4.06-7.74,0-12.75-4.59-12.75-11.9,0-8,6.16-12,12.75-12A10.48,10.48,0,0,1,55,10l2.5-3.27,5,3.82L59.5,14a10.06,10.06,0,0,1,2.44,6.78,9.22,9.22,0,0,1-5.07,8.27c5.26,2.34,5.26,6.21,5.26,7.6,0,7-6.31,10.41-12.8,10.41C41.16,47.1,36.91,43,37,36.26Zm-.1-15.53c0,3.39,2.63,5.64,6.11,5.64,3.11,0,5.93-1.87,5.93-5.64a5.81,5.81,0,0,0-5.93-5.93C45.93,14.81,43.3,16.91,43.3,20.73Z"/><path class="cls-1" d="M64.37,9.4V33.05h6.88V9.4Z"/><path class="cls-1" d="M95.65,30a12.84,12.84,0,0,1-9.23,3.63c-6.87,0-12.9-3.77-12.9-12.28,0-7.93,6-12.37,12.85-12.37,3.44,0,6.16.76,8.55,3.25L91.1,16.53a7.05,7.05,0,0,0-4.44-1.39,5.88,5.88,0,0,0-6.21,6.16,5.78,5.78,0,0,0,6.07,5.93,7.34,7.34,0,0,0,4.77-1.77Z"/><path class="cls-2" d="M64.37,0V6.88h6.88V0Z"/><path class="cls-1" d="M6.83,0V33.07H0V0Z"/><path class="cls-1" d="M9,21.31C9,14.19,14,8.94,21.86,8.94s13,5.25,13,12.37-4.93,12.28-13,12.28S9,28.43,9,21.31Zm19,0c0-3-1.81-6.21-6-6.21S16,18.35,16,21.31s1.77,6.16,5.93,6.16S27.91,24.42,27.91,21.31Z"/>
</g></g></svg>